<svg width="154" height="60" viewBox="0 0 154 60" fill="none" xmlns="http://www.w3.org/2000/svg">
<path d="M15.7402 43.3732C15.7086 44.2116 16.0479 45.8884 17.6577 45.8884C19.2674 45.8884 40.2948 45.8884 50.6073 45.8884C51.2628 45.8884 52.5521 45.3854 52.4654 43.3732M15.7402 43.3732C15.857 40.4365 15.8018 37.2249 15.4872 33.8153M15.7402 43.3732C15.5279 48.7123 14.747 53.1425 13.9231 56.2009M52.4654 43.3732C52.2736 40.1038 52.2646 36.6047 52.5528 33.0607M52.4654 43.3732C52.7617 48.4245 53.4944 52.9276 54.2415 56.2009M52.5528 33.0607C52.8828 29.0028 53.6023 24.886 54.8833 20.9876C55.6516 19.1435 57.7108 18.1679 59.9137 18.0679M52.5528 33.0607C52.4073 32.6415 51.8147 31.8031 50.6073 31.8031C49.4 31.8031 28.1378 31.8031 17.6577 31.8031C16.8763 31.7192 15.3483 32.0043 15.4872 33.8153M15.4872 33.8153C15.1143 29.7746 14.3772 25.456 13.1301 20.9876C12.1806 18.5772 10.1917 17.5667 8.09972 17.5928M13.3966 57.9616C13.3856 57.9944 13.3747 58.027 13.3638 58.0593C13.2294 58.4566 12.8523 58.7162 12.4329 58.7162H9.53851C9.26225 58.7162 8.99641 58.6031 8.81193 58.3975C1.89504 50.6871 3.08989 37.0022 4.57832 31.0485C-2.9674 25.515 2.98787 17.6565 8.09972 17.5928M13.3966 57.9616H54.6747M13.3966 57.9616C13.5707 57.4397 13.7478 56.8513 13.9231 56.2009M54.6747 57.9616C54.6769 57.9698 54.6791 57.9779 54.6813 57.9861C54.7968 58.4195 55.1923 58.7162 55.6409 58.7162H58.5284C58.7728 58.7162 59.0099 58.6291 59.1873 58.461C65.5282 52.4535 64.8436 37.7428 63.6866 31.0485C71.7354 24.7604 64.9224 17.8405 59.9137 18.0679M54.6747 57.9616C54.5318 57.4243 54.3864 56.8357 54.2415 56.2009M13.9231 56.2009H54.2415M8.09972 17.5928C8.77046 12.3524 12.7278 1.82136 23.1912 1.62014C33.6546 1.41892 42.6424 1.5363 45.8284 1.62014C50.6073 1.62014 59.3101 6.47612 59.9137 18.0679M25.2034 11.1781C24.5327 11.4296 23.3421 12.2345 23.9458 13.4418C24.5494 14.6491 26.0418 13.6095 26.7125 12.9388M43.3132 11.1781C42.6425 11.4296 41.452 12.2345 42.0556 13.4418C42.6593 14.6491 44.1517 13.6095 44.8224 12.9388M12.1241 23.7543C14.8329 32.8479 13.4177 48.0964 12.2613 55.3677C12.1843 55.8519 11.7655 56.2009 11.2752 56.2009H10.6542C10.3157 56.2009 9.9983 56.0336 9.82516 55.7427C5.66538 48.7539 6.92069 35.2746 8.09972 29.2879C0.712272 24.7605 9.60887 17.7666 12.1241 23.7543ZM55.8893 24.2574C52.9762 31.0545 54.2581 47.0672 55.5032 55.1099C55.5785 55.5962 55.9985 55.9494 56.4905 55.9494H57.6469C57.9653 55.9494 58.2668 55.8021 58.4419 55.5361C62.5586 49.2814 60.9137 35.4366 59.6622 29.2879C66.7049 24.2574 57.9934 19.3479 55.8893 24.2574Z" stroke="black" stroke-opacity="0.15" stroke-width="0.804878" stroke-linecap="round" stroke-linejoin="round"/>
<path fill-rule="evenodd" clip-rule="evenodd" d="M100.466 4.00586C100.466 2.92239 101.35 2.04689 102.433 2.05692L139.854 2.40341C140.924 2.41331 141.785 3.28298 141.785 4.35235V25.8132C141.785 26.8834 140.923 27.7522 139.855 27.7621H139.447V27.7622H110.991V19.9661C110.991 18.4591 109.769 17.2375 108.262 17.2375H100.466V4.00586ZM139.858 28.5417C139.851 28.5418 139.844 28.5418 139.836 28.5418H110.989C110.958 29.4279 110.592 30.2712 109.963 30.9002L107.644 33.2195H177.864C177.416 32.7985 176.802 32.2622 176.221 31.7604L176.016 31.5834L175.806 31.4027L175.797 31.395L175.797 31.3946L175.796 31.3938L175.795 31.3932L175.794 31.3925C175.262 30.9345 174.806 30.542 174.641 30.3767C174.34 30.076 174.12 29.6619 173.976 29.2717C173.886 29.0271 173.819 28.7746 173.781 28.5418H144.555C144.547 28.5418 144.538 28.5418 144.53 28.5417H139.858ZM144.905 27.7622V27.7621H144.534C143.467 27.751 142.606 26.8827 142.606 25.8132V4.27833C142.606 3.20011 143.481 2.32676 144.559 2.32931L182.717 2.41939C183.792 2.42193 184.662 3.29379 184.662 4.36841V16.8477H176.478C174.971 16.8477 173.75 18.0693 173.75 19.5763V27.7622H144.905ZM142.645 27.7621H141.746C141.92 27.5913 142.072 27.3973 142.196 27.1851C142.319 27.3973 142.471 27.5913 142.645 27.7621ZM178.035 33.9991H107.093V46.083H178.035V33.9991ZM178.035 46.8626H107.093V49.9811C107.093 50.7446 106.779 51.4348 106.274 51.9301H178.854C178.349 51.4348 178.035 50.7446 178.035 49.9811V46.8626ZM104.364 52.7097C104.497 52.7097 104.627 52.7002 104.755 52.6819V52.7097H180.743L180.764 52.7097H181.546V55.0486C181.546 56.5555 182.768 57.7772 184.274 57.7772H189.342C190.849 57.7772 192.071 56.5555 192.071 55.0486V52.7097H192.458C193.965 52.7097 195.186 51.4881 195.186 49.9811V21.9152C195.186 21.7753 195.111 21.6461 194.99 21.5767L186.984 17.0018C186.807 16.9008 186.607 16.8477 186.404 16.8477H185.441V4.36841C185.441 2.86394 184.224 1.64334 182.719 1.63979L144.561 1.5497C143.536 1.54728 142.642 2.11008 142.174 2.94411C141.701 2.15997 140.844 1.63293 139.862 1.62383L102.44 1.27734C100.924 1.2633 99.6865 2.489 99.6865 4.00586V17.2375H99.0456C98.6397 17.2375 98.2389 17.328 97.8724 17.5025L90.1636 21.1734C90.0279 21.238 89.9414 21.375 89.9414 21.5253V49.9811C89.9414 51.4881 91.1631 52.7097 92.67 52.7097H93.0566V55.4383C93.0566 56.9453 94.2783 58.1669 95.7853 58.1669H100.853C102.36 58.1669 103.581 56.9453 103.581 55.4383V52.7097H104.364ZM192.458 51.9301H180.767V51.9301H180.746C179.678 51.9207 178.815 51.0517 178.815 49.9811V33.2195V24.254C178.815 23.1776 179.687 22.305 180.764 22.305H194.407V49.9811C194.407 51.0575 193.534 51.9301 192.458 51.9301ZM182.325 52.7097V55.0486C182.325 56.125 183.198 56.9976 184.274 56.9976H189.342C190.418 56.9976 191.291 56.125 191.291 55.0486V52.7097H182.325ZM93.8363 52.7097V55.4383C93.8363 56.5147 94.7089 57.3873 95.7853 57.3873H100.853C101.929 57.3873 102.802 56.5147 102.802 55.4383V52.7097H93.8363ZM109.412 30.349L107.093 32.6682V23.8642C107.093 22.3572 105.871 21.1355 104.364 21.1355H92.0565L98.2076 18.2064C98.4694 18.0818 98.7556 18.0171 99.0456 18.0171H100.076H108.262C109.339 18.0171 110.211 18.8897 110.211 19.9661V28.152V28.4195C110.211 29.1432 109.924 29.8372 109.412 30.349ZM104.364 21.9151H90.721V49.9811C90.721 51.0575 91.5936 51.9301 92.67 51.9301H104.364C105.441 51.9301 106.313 51.0575 106.313 49.9811V33.6093V23.8642C106.313 22.7877 105.441 21.9151 104.364 21.9151ZM185.047 17.6273H176.478C175.402 17.6273 174.529 18.4999 174.529 19.5763V28.152L174.527 28.152C174.527 28.3534 174.585 28.6706 174.707 29.0014C174.83 29.3325 175 29.6331 175.192 29.8254C175.335 29.9681 175.755 30.3296 176.281 30.783L176.282 30.7835L176.282 30.784L176.283 30.7848L176.284 30.7851L176.286 30.787C176.427 30.909 176.577 31.0376 176.731 31.1704C177.166 31.5468 177.632 31.9523 178.035 32.3173V24.254C178.035 22.747 179.257 21.5253 180.764 21.5253H193.329L186.597 17.6787C186.538 17.645 186.471 17.6273 186.404 17.6273H185.051L185.047 17.6273ZM109.179 12.2641C109.343 12.124 109.589 12.1429 109.729 12.3064L110.602 13.3254L111.476 12.3064C111.616 12.1429 111.862 12.124 112.025 12.2641C112.189 12.4042 112.208 12.6503 112.068 12.8137L111.116 13.9244L112.068 15.035C112.208 15.1984 112.189 15.4445 112.025 15.5846C111.862 15.7247 111.616 15.7058 111.476 15.5424L110.602 14.5233L109.729 15.5424C109.589 15.7058 109.343 15.7247 109.179 15.5846C109.016 15.4445 108.997 15.1984 109.137 15.035L110.089 13.9244L109.137 12.8137C108.997 12.6503 109.016 12.4042 109.179 12.2641ZM120.873 12.2641C121.037 12.124 121.283 12.1429 121.423 12.3064L122.296 13.3254L123.17 12.3064C123.31 12.1429 123.556 12.124 123.719 12.2641C123.883 12.4042 123.902 12.6503 123.762 12.8137L122.81 13.9244L123.762 15.035C123.902 15.1984 123.883 15.4445 123.719 15.5846C123.556 15.7247 123.31 15.7058 123.17 15.5424L122.296 14.5233L121.423 15.5424C121.283 15.7058 121.037 15.7247 120.873 15.5846C120.71 15.4445 120.691 15.1984 120.831 15.035L121.783 13.9244L120.831 12.8137C120.691 12.6503 120.71 12.4042 120.873 12.2641ZM132.567 12.2641C132.731 12.124 132.977 12.1429 133.117 12.3064L133.99 13.3254L134.864 12.3064C135.004 12.1429 135.25 12.124 135.414 12.2641C135.577 12.4042 135.596 12.6503 135.456 12.8137L134.504 13.9244L135.456 15.035C135.596 15.1984 135.577 15.4445 135.414 15.5846C135.25 15.7247 135.004 15.7058 134.864 15.5424L133.99 14.5233L133.117 15.5424C132.977 15.7058 132.731 15.7247 132.567 15.5846C132.404 15.4445 132.385 15.1984 132.525 15.035L133.477 13.9244L132.525 12.8137C132.385 12.6503 132.404 12.4042 132.567 12.2641ZM150.656 12.3064C150.516 12.1429 150.27 12.124 150.107 12.2641C149.943 12.4042 149.924 12.6503 150.065 12.8137L151.017 13.9244L150.065 15.035C149.924 15.1984 149.943 15.4445 150.107 15.5846C150.27 15.7247 150.516 15.7058 150.656 15.5424L151.53 14.5233L152.403 15.5424C152.543 15.7058 152.79 15.7247 152.953 15.5846C153.116 15.4445 153.135 15.1984 152.995 15.035L152.043 13.9244L152.995 12.8137C153.135 12.6503 153.116 12.4042 152.953 12.2641C152.79 12.124 152.543 12.1429 152.403 12.3064L151.53 13.3254L150.656 12.3064ZM162.351 12.3064C162.211 12.1429 161.964 12.124 161.801 12.2641C161.638 12.4042 161.619 12.6503 161.759 12.8137L162.711 13.9244L161.759 15.035C161.619 15.1984 161.638 15.4445 161.801 15.5846C161.964 15.7247 162.211 15.7058 162.351 15.5424L163.224 14.5233L164.098 15.5424C164.238 15.7058 164.484 15.7247 164.647 15.5846C164.811 15.4445 164.83 15.1984 164.689 15.035L163.737 13.9244L164.689 12.8137C164.83 12.6503 164.811 12.4042 164.647 12.2641C164.484 12.124 164.238 12.1429 164.098 12.3064L163.224 13.3254L162.351 12.3064ZM174.045 12.3064C173.905 12.1429 173.659 12.124 173.495 12.2641C173.332 12.4042 173.313 12.6503 173.453 12.8137L174.405 13.9244L173.453 15.035C173.313 15.1984 173.332 15.4445 173.495 15.5846C173.659 15.7247 173.905 15.7058 174.045 15.5424L174.918 14.5233L175.792 15.5424C175.932 15.7058 176.178 15.7247 176.341 15.5846C176.505 15.4445 176.524 15.1984 176.384 15.035L175.432 13.9244L176.384 12.8137C176.524 12.6503 176.505 12.4042 176.341 12.2641C176.178 12.124 175.932 12.1429 175.792 12.3064L174.918 13.3254L174.045 12.3064Z" fill="black" fill-opacity="0.15"/>
</svg>
