<svg width="350" height="147" viewBox="0 0 350 147" fill="none" xmlns="http://www.w3.org/2000/svg">
<path fill-rule="evenodd" clip-rule="evenodd" d="M193.678 1.42985C189.168 1.45191 185.837 1.4682 184.273 1.4682C180.477 1.4682 177.981 2.74083 176.396 4.30577C174.814 5.86763 174.123 7.73689 173.968 8.97389C174.164 14.4928 174.116 30.0757 174.036 41.748C174.129 44.2411 174.361 48.0695 174.756 51.4596C174.954 53.157 175.192 54.7373 175.472 55.9826C175.613 56.6056 175.762 57.1378 175.919 57.5558C176.052 57.9096 176.182 58.1581 176.302 58.3117C176.844 58.0394 177.575 57.7762 178.578 57.5316C181.818 56.7412 188.018 56.1174 200.199 56.1174H200.313H200.427H200.54H200.654H200.767H200.879H200.992H201.104H201.216H201.328H201.44H201.551H201.662H201.773H201.883H201.993H202.103H202.213H202.323H202.432H202.541H202.65H202.758H202.867H202.975H203.082H203.19H203.297H203.404H203.511H203.618H203.724H203.83H203.936H204.041H204.147H204.252H204.356H204.461H204.565H204.669H204.773H204.877H204.98H205.083H205.186H205.289H205.391H205.493H205.595H205.697H205.798H205.899H206H206.101H206.201H206.301H206.401H206.501H206.6H206.7H206.799H206.897H206.996H207.094H207.192H207.29H207.387H207.485H207.582H207.678H207.775H207.871H207.967H208.063H208.159H208.254H208.349H208.444H208.539H208.633H208.727H208.821H208.915H209.009H209.102H209.195H209.288H209.38H209.472H209.564H209.656H209.748H209.839H209.93H210.021H210.112H210.202H210.292H210.382H210.472H210.561H210.651H210.74H210.828H210.917H211.005H211.093H211.181H211.269H211.356H211.443H211.53H211.617H211.703H211.79H211.876H211.961H212.047H212.132H212.217H212.302H212.387H212.471H212.555H212.639H212.723H212.806H212.889H212.973H213.055H213.138H213.22H213.302H213.384H213.466H213.547H213.628H213.709H213.79H213.871H213.951H214.031H214.111H214.19H214.27H214.349H214.428H214.507H214.585H214.663H214.742H214.819H214.897H214.974H215.051H215.128H215.205H215.282H215.358H215.434H215.51H215.585H215.661H215.736H215.811H215.886H215.96H216.034H216.108H216.182H216.256H216.329H216.402H216.475H216.548H216.621H216.693H216.765H216.837H216.909H216.98H217.051H217.122H217.193H217.264H217.334H217.404H217.474H217.544H217.613H217.682H217.751H217.82H217.889H217.957H218.025H218.093H218.161H218.229H218.296H218.363H218.43H218.497H218.563H218.63H218.696H218.761H218.827H218.893H218.958H219.023H219.088H219.152H219.216H219.281H219.345H219.408H219.472H219.535H219.598H219.661H219.724H219.786H219.849H219.911H219.972H220.034H220.095H220.157H220.218H220.279H220.339H220.4H220.46H220.52H220.579H220.639H220.698H220.757H220.816H220.875H220.934H220.992H221.05H221.108H221.166H221.223H221.281H221.338H221.395H221.451H221.508H221.564H221.62H221.676H221.732H221.787H221.842H221.897H221.952H222.007H222.061H222.116H222.17H222.224H222.277H222.331H222.384H222.437H222.49H222.543H222.595H222.647H222.699H222.751H222.803H222.854H222.906H222.957H223.008H223.058H223.109H223.159H223.209H223.259H223.309H223.358H223.407H223.457H223.505H223.554H223.603H223.651H223.699H223.747H223.795H223.842H223.89H223.937H223.984H224.03H224.077H224.123H224.17H224.216H224.261H224.307H224.352H224.398H224.443H224.487H224.532H224.577H224.621H224.665H224.709H224.752H224.796H224.839H224.882H224.925H224.968H225.01H225.053H225.095H225.137H225.179H225.22H225.262H225.303H225.344H225.385H225.426H225.466H225.506H225.546H225.586H225.626H225.666H225.705H225.744H225.783H225.822H225.861H225.899H225.937H225.975H226.013H226.051H226.088H226.126H226.163H226.2H226.236H226.273H226.309H226.346H226.382H226.418H226.453H226.489H226.524H226.559H226.594H226.629H226.663H226.698H226.732H226.766H226.8H226.834H226.867H226.9H226.934H226.967H226.999H227.032H227.064H227.097H227.129H227.161H227.192H227.224H227.255H227.286H227.317H227.348H227.379H227.409H227.44H227.47H227.5H227.53H227.559H227.589H227.618H227.647H227.676H227.704H227.733H227.761H227.79H227.818H227.845H227.873H227.901H227.928H227.955H227.982H228.009H228.036H228.062H228.088H228.115H228.141H228.166H228.192H228.217H228.243H228.268H228.293H228.317H228.342H228.366H228.391H228.415H228.439H228.462H228.486H228.509H228.533H228.556H228.579H228.601H228.624H228.646H228.669H228.691H228.713H228.734H228.756H228.777H228.799H228.82H228.841H228.861H228.882H228.902H228.923H228.943H228.963H228.982H229.002H229.022H229.041H229.06H229.079H229.098H229.116H229.135H229.153H229.171H229.189H229.207H229.225H229.242H229.259H229.277H229.294H229.31H229.327H229.344H229.36H229.376H229.392H229.408H229.424H229.439H229.455H229.47H229.485H229.5H229.515H229.53H229.544H229.558H229.572H229.586H229.6H229.614H229.628H229.641H229.654H229.667H229.68H229.693H229.705H229.715C231.002 54.4891 233.753 50.6259 235.2 47.2505C235.644 46.2129 235.818 44.9144 235.814 43.4661C235.809 42.0208 235.626 40.4482 235.373 38.8743C235.168 37.5959 234.918 36.3246 234.682 35.1241L234.682 35.1212L234.681 35.1185C234.627 34.8425 234.573 34.5703 234.521 34.3027C234.244 32.8757 234.006 31.57 233.926 30.5343C233.767 28.4605 234.085 26.4679 234.565 24.9881C234.805 24.2492 235.088 23.626 235.382 23.1804C235.528 22.9583 235.684 22.7695 235.847 22.6329C236.007 22.4994 236.203 22.391 236.423 22.391C236.688 22.391 237.182 22.4545 237.786 22.5617C238.398 22.6704 239.147 22.828 239.934 23.0249C241.495 23.415 243.241 23.9673 244.374 24.6116C246.702 25.6945 253.925 28.0258 260.985 30.0541C264.515 31.0682 267.994 32.0037 270.783 32.6658C272.178 32.9969 273.397 33.2588 274.363 33.4281C275.342 33.5998 276.023 33.6689 276.364 33.6348C277.507 33.5205 279.961 33.6099 282.834 33.7394C283.365 33.7634 283.911 33.7887 284.467 33.8145L284.47 33.8146C286.83 33.9242 289.371 34.0421 291.694 34.0948C291.64 31.4674 290.959 26.6609 289.986 21.8875C288.97 16.9064 287.65 12.031 286.425 9.73446C285.439 7.88494 284.613 6.50255 283.638 5.42514C282.162 3.79485 280.316 2.83293 276.952 2.08533C276.284 1.93676 274.492 1.80998 271.806 1.70706C269.135 1.60474 265.614 1.52671 261.514 1.46817C253.314 1.3511 242.805 1.31206 232.169 1.31206C221.532 1.31206 210.769 1.35109 202.059 1.39013C198.976 1.40395 196.15 1.41777 193.678 1.42985ZM175.957 3.86134C174.651 5.15153 173.907 6.64154 173.558 7.88208C171.98 4.25039 169.76 2.46487 167.481 1.6056C165.335 0.796482 163.156 0.820636 161.512 0.838864C161.281 0.841425 161.06 0.84387 160.852 0.84387C160.31 0.84387 158.147 0.836072 154.845 0.824174C137.252 0.760771 87.3457 0.580915 78.4007 0.844005C74.1214 0.969865 70.8592 1.7306 68.515 2.63708C66.2961 3.49515 64.8837 4.49034 64.2178 5.21436C58.8558 5.20579 47.2237 10.6181 41.26 31.9881C40.4627 34.845 38.4322 36.584 36.495 37.6539C35.5272 38.1885 34.5885 38.5524 33.8501 38.8026C33.4965 38.9224 33.1899 39.0157 32.9461 39.09L32.9142 39.0997L32.8927 39.1062C32.6909 39.1677 32.5078 39.2234 32.3971 39.2724C27.8119 40.5236 20.9316 42.5836 15.1589 44.7074C12.2688 45.7707 9.64614 46.8536 7.72629 47.8624C6.76761 48.3662 5.97172 48.8579 5.40325 49.3266C5.11888 49.5611 4.88297 49.7966 4.71165 50.0325C4.54116 50.2673 4.42244 50.5193 4.40046 50.7829C4.367 51.1845 4.1525 51.6918 3.80006 52.4439C3.75584 52.5383 3.70981 52.6358 3.66219 52.7368C3.33956 53.4205 2.94445 54.2579 2.55091 55.2944C1.64525 57.6798 0.750054 61.1121 0.691073 66.2632C0.573225 76.5553 3.79387 93.7005 16.9178 123.073L16.9413 123.126L16.9821 123.167C17.1254 123.31 17.333 123.419 17.561 123.508C17.7952 123.599 18.0801 123.679 18.4031 123.75C19.0495 123.893 19.8764 124.005 20.8144 124.091C22.1876 124.217 23.8151 124.287 25.4938 124.308C24.5077 127.655 22.6786 134.39 22.2012 138.209C21.7012 142.209 21.3677 145.502 21.2632 146.651L21.2323 146.991H21.5742H24.3848H24.547L24.6403 146.858C27.324 143.039 32.9446 132.917 35.5078 123.733C35.6039 123.713 35.695 123.693 35.7809 123.672C36.045 123.607 36.2741 123.534 36.4487 123.45C36.5359 123.408 36.6209 123.357 36.6919 123.295C36.7617 123.233 36.8367 123.144 36.8672 123.021C36.8709 123.007 36.8742 122.992 36.8772 122.977C37.7189 123.343 39.0925 123.661 40.9072 123.944C42.8332 124.244 45.2888 124.509 48.2007 124.742C54.025 125.208 61.692 125.548 70.633 125.79C88.5161 126.273 111.512 126.361 135.09 126.263C162.891 126.148 191.493 125.776 213.492 125.489C228.818 125.289 240.939 125.131 247.353 125.131C254.926 125.131 262.544 125.187 269.767 125.239L269.769 125.239H269.77L269.772 125.239C277.426 125.294 284.636 125.347 290.878 125.327C296.949 125.307 302.119 125.219 305.909 124.999C307.804 124.889 309.362 124.746 310.518 124.56C311.096 124.467 311.582 124.362 311.963 124.242C312.133 124.189 312.292 124.13 312.432 124.063C313.337 127.303 314.864 132.101 316.648 136.476C317.579 138.757 318.582 140.93 319.607 142.709C320.626 144.477 321.688 145.895 322.748 146.624L322.828 146.679H322.925H326.048H326.389L326.359 146.339C326.047 142.746 325.515 137.339 324.937 132.797C324.648 130.528 324.346 128.468 324.053 126.958C323.907 126.205 323.762 125.578 323.618 125.128C323.583 125.017 323.546 124.913 323.509 124.819H323.518H323.532H323.546H323.56H323.575H323.589H323.603H323.618H323.632H323.647H323.661H323.676H323.691H323.705H323.72H323.735H323.75H323.765H323.78H323.795H323.81H323.825H323.84H323.855H323.87H323.886H323.901H323.916H323.932H323.947H323.963H323.978H323.994H324.009H324.025H324.041H324.056H324.072H324.088H324.104H324.12H324.136H324.152H324.168H324.184H324.2H324.216H324.232H324.249H324.265H324.281H324.298H324.314H324.331H324.347H324.364H324.38H324.397H324.413H324.43H324.447H324.463H324.48H324.497H324.514H324.531H324.548H324.565H324.582H324.599H324.616H324.633H324.65H324.667H324.684H324.702H324.719H324.736H324.754H324.771H324.788H324.806H324.823H324.841H324.858H324.876H324.894H324.911H324.929H324.947H324.964H324.982H325H325.018H325.036H325.053H325.071H325.089H325.107H325.125H325.143H325.161H325.18H325.198H325.216H325.234H325.252H325.27H325.289H325.307H325.325H325.344H325.362H325.38H325.399H325.417H325.436H325.454H325.473H325.491H325.51H325.529H325.547H325.566H325.585H325.603H325.622H325.641H325.659H325.678H325.697H325.716H325.735H325.754H325.773H325.791H325.81H325.829H325.848H325.867H325.886H325.905H325.925H325.944H325.963H325.982H326.001H326.02H326.039H326.059H326.078H326.097H326.116H326.136H326.155H326.174H326.194H326.213H326.232H326.252H326.271H326.291H326.31H326.329H326.349H326.368H326.388H326.407H326.427H326.447H326.466H326.486H326.505H326.525H326.545H326.564H326.584H326.603H326.623H326.643H326.663H326.682H326.702H326.722H326.741H326.761H326.781H326.801H326.82H326.84H326.86H326.88H326.9H326.92H326.939H326.959H326.979H326.999H327.019H327.039H327.059H327.079H327.099H327.118H327.138H327.158H327.178H327.198H327.218H327.238H327.258H327.278H327.298H327.318H327.338H327.358H327.378H327.398H327.418H327.438H327.458H327.478H327.498H327.518H327.538H327.558H327.578H327.598H327.618H327.638H327.659H327.679H327.699H327.719H327.739H327.759H327.779H327.799H327.819H327.839H327.859H327.879H327.899H327.919H327.939H327.959H327.979H328H328.02H328.04H328.06H328.08H328.1H328.12H328.14H328.16H328.18H328.2H328.22H328.24H328.26H328.28H328.3H328.32H328.34H328.36H328.38H328.4H328.42H328.44H328.46H328.48H328.5H328.52H328.54H328.56H328.579H328.599H328.619H328.639H328.659H328.679H328.699H328.719H328.738H328.758H328.778H328.798H328.818H328.838H328.857H328.877H328.897H328.917H328.936H328.956H328.976H328.996H329.015H329.035H329.055H329.074H329.094H329.113H329.133H329.153H329.172H329.192H329.211H329.231H329.25H329.27H329.29H329.309H329.328H329.348H329.367H329.387H329.406H329.426H329.445H329.464H329.484H329.503H329.522H329.542H329.561H329.58H329.599H329.618H329.638H329.657H329.676H329.695H329.714H329.733H329.752H329.771H329.791H329.81H329.829H329.848H329.866H329.885H329.904H329.923H329.942H329.961H329.98H329.998H330.017H330.036H330.055H330.073H330.092H330.111H330.129H330.148H330.167H330.185H330.204H330.222H330.241H330.259H330.277H330.296H330.314H330.333H330.351H330.369H330.387H330.406H330.424H330.442H330.46H330.478H330.496H330.514H330.533H330.551H330.568H330.586H330.604H330.622H330.64H330.658H330.676H330.693H330.711H330.729H330.747H330.764H330.782H330.799H330.817H330.834H330.852H330.869H330.887H330.904H330.922H330.939H330.956H330.973H330.991H331.008H331.025H331.042H331.059H331.076H331.093H331.11H331.127H331.144H331.161H331.177H331.194H331.211H331.228H331.244H331.261H331.278H331.294H331.311H331.327H331.344H331.36H331.376H331.393H331.409H331.425H331.441H331.457H331.474H331.49H331.506H331.522H331.538H331.554H331.569H331.585H331.601H331.617H331.633H331.648H331.664H331.679H331.695H331.71H331.726H331.741H331.757H331.772H331.787H331.802H331.818H331.833H331.848H331.863H331.878H331.893H331.908H331.922H331.937H331.952H331.967H331.981C332.196 124.819 332.384 124.697 332.531 124.57C332.688 124.434 332.852 124.243 333.022 124.012C333.363 123.548 333.758 122.878 334.194 122.036C335.069 120.35 336.13 117.936 337.278 115.008C339.576 109.152 342.234 101.216 344.462 92.8911C346.689 84.5676 348.49 75.8421 349.068 68.4083C349.357 64.6917 349.341 61.2874 348.916 58.4125C348.503 55.6239 347.7 53.3032 346.388 51.6832C346.44 51.4407 346.363 51.2001 346.225 50.9907C346.053 50.7289 345.764 50.472 345.406 50.2195C344.682 49.7107 343.574 49.1503 342.211 48.5559C339.481 47.3646 335.653 46.0042 331.654 44.6192C330.852 44.3414 330.043 44.0625 329.234 43.7837C326.004 42.6706 322.777 41.5588 320.015 40.5185C318.288 39.8682 316.748 39.2479 315.506 38.6749C314.255 38.0981 313.334 37.5813 312.823 37.1435C311.782 36.2514 310.772 34.6994 309.736 32.7081C308.773 30.8596 307.805 28.6674 306.775 26.3366L306.548 25.8212C304.325 20.7933 301.807 15.204 298.494 11.2603C293.278 5.05022 286.793 4.39429 283.982 4.87709C282.408 3.19524 280.438 2.22007 277.088 1.47564C276.351 1.31193 274.493 1.18498 271.83 1.08296C269.152 0.98035 265.625 0.902238 261.523 0.843672C253.318 0.726534 242.806 0.6875 232.169 0.6875C221.531 0.6875 210.766 0.726537 202.057 0.765573C198.972 0.779398 196.145 0.793222 193.673 0.805311L193.672 0.805316C189.164 0.827362 185.835 0.84364 184.273 0.84364C180.324 0.84364 177.667 2.17335 175.957 3.86134ZM39.4107 97.5047C37.8035 100.54 35.2678 108.167 35.8855 117.439C35.8499 117.223 35.8147 117.001 35.7801 116.771C35.2374 113.166 34.8478 107.805 35.6258 100.181C36.0793 95.7372 34.5032 93.1214 32.4659 89.7402C32.3121 89.4849 32.1557 89.2253 31.9973 88.9603C29.7453 85.1908 27.0286 80.2213 25.6311 70.7492L25.6296 70.7393L25.6275 70.7294C25.6098 70.6465 25.5892 70.5598 25.566 70.4694L25.6347 70.4658C25.5857 69.5359 25.8688 68.2924 26.8236 67.5158C27.7653 66.75 29.4588 66.3608 32.4065 67.3434C36.208 68.6105 40.9027 68.7004 44.3528 67.0154C46.0851 66.1694 47.5102 64.8718 48.3355 63.0479C49.1602 61.2253 49.3719 58.9091 48.7364 56.0495C47.4851 50.4187 46.4633 47.6561 45.6647 46.0989C45.2633 45.3161 44.9203 44.8419 44.6417 44.4687L44.5918 44.402C44.3393 44.0644 44.1669 43.8339 44.0373 43.51C43.9634 43.3252 44.0297 42.9781 44.541 42.6748C45.0371 42.3804 45.8955 42.1855 47.1357 42.3734C49.5653 42.7415 53.3811 44.5709 58.5089 49.7663C61.5624 54.4499 64.868 56.5117 67.6224 57.3594C68.1438 57.5199 68.6443 57.6364 69.1183 57.719C67.0677 58.1181 64.7766 58.7013 62.6757 59.5766C60.7872 60.3635 54.1398 63.5705 47.9654 67.0485C44.878 68.7876 41.8988 70.6001 39.6882 72.2163C38.5839 73.0236 37.6613 73.7892 37.0116 74.4785C36.6867 74.8232 36.423 75.1562 36.239 75.4725C36.068 75.7663 35.9548 76.0647 35.9411 76.3566C35.1534 78.5322 34.3933 82.1573 34.6364 86.0612C34.8803 89.9755 36.1352 94.1964 39.4129 97.5059L39.4107 97.5047ZM39.9627 97.7969L39.7038 97.6598C42.95 98.2813 48.8522 98.6676 56.0568 98.9046C63.327 99.1439 71.9477 99.2317 80.556 99.2513C88.2702 99.2687 95.9714 99.2314 102.685 99.1989C110.962 99.1588 117.738 99.126 121.184 99.2121C121.946 99.2312 122.789 99.2537 123.702 99.2781H123.702H123.702H123.702C130.27 99.4536 140.443 99.7255 149.774 99.4854C155.087 99.3486 160.137 99.0457 164.098 98.4623C166.078 98.1707 167.797 97.8076 169.144 97.3559C170.477 96.9089 171.503 96.3573 172.032 95.6522C172.541 94.9735 172.938 93.8859 173.253 92.5445C173.46 91.6626 173.635 90.655 173.781 89.554C173.747 90.9489 173.826 92.0977 173.971 93.0301C174.117 93.9719 174.332 94.6981 174.57 95.2359C174.794 95.7438 175.049 96.105 175.306 96.3117C175.381 96.3987 175.482 96.4535 175.559 96.4892C175.664 96.5385 175.795 96.5827 175.944 96.6236C176.242 96.7057 176.648 96.7846 177.151 96.8615C178.157 97.0156 179.582 97.1661 181.361 97.3124C184.923 97.6051 189.93 97.8822 195.916 98.1335C207.889 98.6362 223.79 99.0364 239.893 99.2511C255.997 99.4659 272.308 99.4952 285.101 99.256C291.497 99.1364 297.018 98.9497 301.194 98.6852C303.283 98.5529 305.039 98.401 306.402 98.2278C307.676 98.0659 308.639 97.8821 309.208 97.6657C309.737 97.8105 310.231 98.1869 310.688 98.789C311.172 99.4253 311.597 100.293 311.963 101.336C312.696 103.423 313.172 106.158 313.429 109.007C313.667 111.641 313.717 114.358 313.613 116.726C313.318 119.355 312.975 121.484 312.697 122.852C312.591 123.1 312.488 123.26 312.399 123.349C312.319 123.429 312.129 123.536 311.776 123.646C311.436 123.753 310.982 123.852 310.419 123.943C309.294 124.124 307.76 124.266 305.873 124.376C302.101 124.595 296.946 124.683 290.876 124.702C284.629 124.722 277.428 124.67 269.781 124.614C262.56 124.562 254.942 124.507 247.353 124.507C240.945 124.507 228.819 124.665 213.489 124.865H213.488H213.487C191.481 125.151 162.87 125.524 135.087 125.639C111.511 125.736 88.523 125.649 70.6499 125.166C61.7129 124.924 54.0586 124.584 48.2505 124.119C45.3461 123.887 42.9077 123.624 41.0034 123.327C39.2055 123.047 37.9122 122.741 37.152 122.415C34.9791 111.07 38.126 101.266 39.9627 97.7969ZM174.284 84.4853C174.256 84.6538 174.23 84.8202 174.206 84.9845C174.39 81.9761 174.442 78.6617 174.397 75.4355C174.338 71.1932 174.114 67.095 173.805 64.0347C173.651 62.5058 173.475 61.2285 173.287 60.3194C173.194 59.8667 173.094 59.4929 172.989 59.2215C172.936 59.0868 172.877 58.9633 172.807 58.8651C172.753 58.789 172.666 58.6904 172.538 58.6421C172.525 58.6262 172.512 58.6103 172.499 58.5946C172.772 58.1871 172.989 57.6515 173.164 57.0623C173.375 56.3525 173.534 55.5339 173.652 54.7016C173.889 53.0382 173.968 51.2916 173.968 50.1872L173.97 49.9888C174.022 50.5089 174.077 51.0252 174.136 51.5319C174.335 53.2384 174.576 54.8434 174.863 56.1197C175.007 56.7575 175.163 57.3203 175.334 57.7757C175.459 58.1073 175.598 58.4014 175.759 58.6275C175.663 58.6926 175.576 58.758 175.496 58.8235C175.011 59.2232 174.822 59.6224 174.685 59.9124C174.664 59.9567 174.644 59.9986 174.625 60.0374C174.561 60.166 174.527 60.3367 174.505 60.5117C174.482 60.6957 174.469 60.9203 174.463 61.1781C174.451 61.6941 174.468 62.3671 174.499 63.1611C174.529 63.9021 174.573 64.7543 174.62 65.6903L174.62 65.6908L174.631 65.8964C174.683 66.9143 174.739 68.0279 174.787 69.2071C174.982 73.9288 175.059 79.6786 174.284 84.4853ZM292.319 34.1074C294.57 34.1472 296.557 34.1163 297.904 33.9479C299.165 33.7903 300.132 33.7675 300.863 33.8653C301.592 33.9629 302.123 34.1854 302.465 34.5522C302.813 34.9248 302.921 35.3968 302.91 35.8895C302.899 36.3763 302.772 36.9165 302.615 37.4664C302.339 38.4335 301.825 39.1774 301.15 40.1568C301.019 40.3467 300.881 40.5455 300.739 40.7564C299.85 42.07 298.689 43.9264 297.293 47.1843C294.736 53.1497 296.122 58.5948 298.071 63.0702C304.695 66.3416 309.552 69.6142 312.801 72.3513C314.433 73.7265 315.663 74.9701 316.508 76.0142C317.342 77.0438 317.835 77.9205 317.926 78.5574C317.982 78.9522 318.009 79.3638 317.999 79.8436C320.425 73.921 324.272 66.239 328.836 60.2607C331.395 56.9084 334.194 54.071 337.112 52.3874C339.876 50.7926 342.767 50.2235 345.649 51.259C345.531 51.11 345.334 50.9328 345.046 50.7303C344.377 50.2597 343.317 49.7198 341.962 49.1284C339.257 47.9484 335.453 46.5958 331.45 45.2094C330.65 44.9323 329.842 44.654 329.034 44.3755L329.034 44.3754C325.803 43.2622 322.566 42.1466 319.795 41.103C318.062 40.4505 316.506 39.8241 315.244 39.242C313.99 38.6636 312.999 38.1167 312.417 37.6177C311.278 36.6417 310.222 34.9956 309.182 32.9965C308.21 31.1295 307.233 28.9194 306.207 26.5951L305.976 26.0737C303.746 21.0276 301.261 15.5253 298.016 11.662C293.189 5.91511 287.273 5.10981 284.471 5.4376C285.343 6.50391 286.109 7.81393 286.976 9.44054C288.25 11.8282 289.584 16.7897 290.598 21.7627C291.575 26.5545 292.268 31.4216 292.319 34.1074ZM345.843 52.004C343.045 50.84 340.209 51.3215 337.424 52.9283C334.609 54.5529 331.868 57.3171 329.332 60.6397C324.27 67.271 320.083 76.0443 317.772 82.1165C317.375 84.7134 316.413 89.0304 314.556 97.3586C315.21 104.459 314.818 111.58 314.236 116.774C314.232 116.884 314.226 116.993 314.221 117.102C314.217 117.176 314.213 117.249 314.209 117.323C314.07 119.833 313.754 121.943 313.285 123.066C313.226 123.207 313.162 123.338 313.092 123.457C313.699 123.729 314.451 123.908 315.282 124.022C316.263 124.156 317.33 124.195 318.358 124.195C319.117 124.195 319.848 124.173 320.505 124.154C320.739 124.148 320.963 124.141 321.176 124.136C321.579 124.126 321.943 124.121 322.247 124.129C322.524 124.136 322.773 124.153 322.961 124.195H322.972H322.984H322.996H323.008H323.02H323.032H323.044H323.056H323.069H323.081H323.093H323.106H323.118H323.131H323.143H323.156H323.169H323.181H323.194H323.207H323.22H323.233H323.246H323.259H323.272H323.285H323.299H323.312H323.325H323.339H323.352H323.366H323.379H323.393H323.407H323.42H323.434H323.448H323.462H323.476H323.49H323.504H323.518H323.532H323.546H323.56H323.575H323.589H323.603H323.618H323.632H323.647H323.661H323.676H323.691H323.705H323.72H323.735H323.75H323.765H323.78H323.795H323.81H323.825H323.84H323.855H323.87H323.886H323.901H323.916H323.932H323.947H323.963H323.978H323.994H324.009H324.025H324.041H324.056H324.072H324.088H324.104H324.12H324.136H324.152H324.168H324.184H324.2H324.216H324.232H324.249H324.265H324.281H324.298H324.314H324.331H324.347H324.364H324.38H324.397H324.413H324.43H324.447H324.463H324.48H324.497H324.514H324.531H324.548H324.565H324.582H324.599H324.616H324.633H324.65H324.667H324.684H324.702H324.719H324.736H324.754H324.771H324.788H324.806H324.823H324.841H324.858H324.876H324.894H324.911H324.929H324.947H324.964H324.982H325H325.018H325.036H325.053H325.071H325.089H325.107H325.125H325.143H325.161H325.18H325.198H325.216H325.234H325.252H325.27H325.289H325.307H325.325H325.344H325.362H325.38H325.399H325.417H325.436H325.454H325.473H325.491H325.51H325.529H325.547H325.566H325.585H325.603H325.622H325.641H325.659H325.678H325.697H325.716H325.735H325.754H325.773H325.791H325.81H325.829H325.848H325.867H325.886H325.905H325.925H325.944H325.963H325.982H326.001H326.02H326.039H326.059H326.078H326.097H326.116H326.136H326.155H326.174H326.194H326.213H326.232H326.252H326.271H326.291H326.31H326.329H326.349H326.368H326.388H326.407H326.427H326.447H326.466H326.486H326.505H326.525H326.545H326.564H326.584H326.603H326.623H326.643H326.663H326.682H326.702H326.722H326.741H326.761H326.781H326.801H326.82H326.84H326.86H326.88H326.9H326.92H326.939H326.959H326.979H326.999H327.019H327.039H327.059H327.079H327.099H327.118H327.138H327.158H327.178H327.198H327.218H327.238H327.258H327.278H327.298H327.318H327.338H327.358H327.378H327.398H327.418H327.438H327.458H327.478H327.498H327.518H327.538H327.558H327.578H327.598H327.618H327.638H327.659H327.679H327.699H327.719H327.739H327.759H327.779H327.799H327.819H327.839H327.859H327.879H327.899H327.919H327.939H327.959H327.979H328H328.02H328.04H328.06H328.08H328.1H328.12H328.14H328.16H328.18H328.2H328.22H328.24H328.26H328.28H328.3H328.32H328.34H328.36H328.38H328.4H328.42H328.44H328.46H328.48H328.5H328.52H328.54H328.56H328.579H328.599H328.619H328.639H328.659H328.679H328.699H328.719H328.738H328.758H328.778H328.798H328.818H328.838H328.857H328.877H328.897H328.917H328.936H328.956H328.976H328.996H329.015H329.035H329.055H329.074H329.094H329.113H329.133H329.153H329.172H329.192H329.211H329.231H329.25H329.27H329.29H329.309H329.328H329.348H329.367H329.387H329.406H329.426H329.445H329.464H329.484H329.503H329.522H329.542H329.561H329.58H329.599H329.618H329.638H329.657H329.676H329.695H329.714H329.733H329.752H329.771H329.791H329.81H329.829H329.848H329.866H329.885H329.904H329.923H329.942H329.961H329.98H329.998H330.017H330.036H330.055H330.073H330.092H330.111H330.129H330.148H330.167H330.185H330.204H330.222H330.241H330.259H330.277H330.296H330.314H330.333H330.351H330.369H330.387H330.406H330.424H330.442H330.46H330.478H330.496H330.514H330.533H330.551H330.568H330.586H330.604H330.622H330.64H330.658H330.676H330.693H330.711H330.729H330.747H330.764H330.782H330.799H330.817H330.834H330.852H330.869H330.887H330.904H330.922H330.939H330.956H330.973H330.991H331.008H331.025H331.042H331.059H331.076H331.093H331.11H331.127H331.144H331.161H331.177H331.194H331.211H331.228H331.244H331.261H331.278H331.294H331.311H331.327H331.344H331.36H331.376H331.393H331.409H331.425H331.441H331.457H331.474H331.49H331.506H331.522H331.538H331.554H331.569H331.585H331.601H331.617H331.633H331.648H331.664H331.679H331.695H331.71H331.726H331.741H331.757H331.772H331.787H331.802H331.818H331.833H331.848H331.863H331.878H331.893H331.908H331.922H331.937H331.952H331.967L331.977 124.194C331.977 124.194 332.022 124.184 332.122 124.098C332.229 124.005 332.362 123.855 332.519 123.642C332.831 123.217 333.209 122.58 333.64 121.749C334.5 120.09 335.552 117.698 336.697 114.78C338.986 108.946 341.637 101.033 343.859 92.7296C346.081 84.4242 347.872 75.74 348.445 68.3599C348.732 64.6697 348.714 61.316 348.298 58.504C347.886 55.7221 347.089 53.5014 345.843 52.004ZM313.102 124.137C313.729 124.38 314.449 124.538 315.198 124.641C316.218 124.78 317.317 124.819 318.358 124.819C319.126 124.819 319.87 124.798 320.528 124.779L320.529 124.779L320.53 124.779C320.762 124.772 320.983 124.766 321.191 124.76C321.593 124.751 321.944 124.746 322.231 124.753C322.491 124.76 322.681 124.775 322.804 124.8L322.808 124.804C322.817 124.818 322.829 124.837 322.844 124.864C322.896 124.96 322.957 125.109 323.023 125.318C323.155 125.733 323.296 126.331 323.44 127.077C323.729 128.567 324.029 130.61 324.317 132.876C324.876 137.266 325.392 142.47 325.707 146.054H323.024C322.109 145.391 321.132 144.104 320.148 142.397C319.143 140.652 318.151 138.508 317.226 136.24C315.497 132 314.009 127.354 313.102 124.137ZM314.145 110.127C314.34 106.177 314.338 101.766 313.93 97.3673L313.926 97.3184L313.936 97.2705C315.811 88.8614 316.769 84.5607 317.159 81.9897C317.407 80.3619 317.423 79.4522 317.307 78.6457C317.242 78.1896 316.848 77.4268 316.023 76.4071C315.209 75.4018 314.009 74.1862 312.399 72.8289C309.306 70.223 304.714 67.1081 298.475 63.9695L298.538 64.1047C298.862 64.798 299.113 65.401 299.3 65.9227L299.348 65.8392C301.541 67.0925 304.847 69.1449 307.639 71.2314C309.035 72.2741 310.311 73.3316 311.256 74.307C311.729 74.7946 312.125 75.2681 312.414 75.7146C312.69 76.143 312.881 76.5683 312.928 76.9718C314.232 80.5248 314.661 83.5442 314.553 86.1094C314.312 91.8236 311.404 95.2259 309.724 97.1872C310.279 97.4272 310.764 97.856 311.186 98.4112C311.723 99.1184 312.174 100.052 312.553 101.13C313.309 103.286 313.791 106.078 314.051 108.95C314.086 109.341 314.118 109.734 314.145 110.127ZM312.445 77.4731C312.203 77.5631 311.899 77.6342 311.556 77.694C310.997 77.7916 310.277 77.8677 309.421 77.9257C307.706 78.0417 305.418 78.0868 302.72 78.0795C297.322 78.0648 290.261 77.8402 282.825 77.5474C278.326 77.3703 273.691 77.1683 269.201 76.9727L269.196 76.9724C258.835 76.521 249.251 76.1033 243.919 76.1033C238.615 76.1033 229.856 76.4414 220.436 76.805L220.435 76.805C216.279 76.9654 211.995 77.1307 207.822 77.2742C201.01 77.5084 194.496 77.6843 189.333 77.6843C186.752 77.6843 184.504 77.6403 182.724 77.5374C180.956 77.4351 179.613 77.2733 178.866 77.0242L178.821 77.0093L178.783 76.982C177.832 76.3026 177.094 75.0399 176.519 73.5517C176.074 72.3986 175.716 71.0807 175.433 69.7295C175.611 74.3499 175.656 79.8976 174.9 84.5847C174.279 88.4348 174.308 91.1329 174.588 92.9342C174.728 93.8349 174.93 94.5061 175.141 94.9833C175.355 95.467 175.568 95.7287 175.716 95.8395L175.763 95.8745L175.779 95.9C175.787 95.9049 175.801 95.9129 175.823 95.9232C175.884 95.9516 175.977 95.985 176.109 96.0214C176.373 96.0939 176.752 96.1686 177.245 96.2441C178.23 96.3949 179.637 96.544 181.413 96.6899C184.962 96.9816 189.959 97.2583 195.943 97.5095C207.908 98.0119 223.802 98.412 239.902 98.6266C256.002 98.8413 272.305 98.8706 285.09 98.6316C291.482 98.5121 296.992 98.3255 301.155 98.0619C303.237 97.93 304.978 97.7791 306.324 97.6082C307.619 97.4436 308.515 97.264 308.996 97.0779L309.048 97.0168C309.084 96.9747 309.121 96.9319 309.158 96.8884L309.24 96.7925C310.909 94.8415 313.697 91.5825 313.929 86.0831C314.03 83.6784 313.643 80.8342 312.445 77.4731ZM175.209 60.2651C175.068 61.5128 175.207 64.9448 175.814 68.3985C176.12 70.144 176.543 71.879 177.102 73.3267C177.656 74.7624 178.327 75.8684 179.108 76.4462C179.778 76.658 181.024 76.8134 182.76 76.9138C184.523 77.0158 186.757 77.0597 189.333 77.0597C194.485 77.0597 200.99 76.8842 207.801 76.65C211.963 76.5069 216.241 76.3418 220.393 76.1816L220.393 76.1815C229.821 75.8177 238.602 75.4788 243.919 75.4788C249.265 75.4788 258.873 75.8974 269.243 76.3493L269.244 76.3493L269.25 76.3496C273.735 76.545 278.363 76.7467 282.849 76.9233C290.285 77.2161 297.336 77.4403 302.721 77.4549C305.415 77.4622 307.686 77.4171 309.379 77.3026C310.225 77.2452 310.921 77.171 311.449 77.0788C311.833 77.0117 312.103 76.939 312.275 76.8696C312.216 76.6367 312.09 76.3641 311.889 76.0534C311.631 75.6533 311.264 75.2124 310.808 74.7417C309.895 73.8005 308.649 72.7657 307.266 71.7318C304.705 69.8186 301.702 67.9297 299.541 66.672C299.564 66.7519 299.584 66.8293 299.602 66.9042C299.771 67.5901 299.795 68.1253 299.635 68.4975C299.55 68.6954 299.413 68.8475 299.229 68.9386C299.051 69.0268 298.854 69.0452 298.664 69.0268C298.299 68.9915 297.888 68.8126 297.49 68.5765C288.317 64.8163 278.98 63.191 271.041 61.8092C268.478 61.3629 266.06 60.9421 263.841 60.4829C259.341 59.5518 251.792 59.0058 245.038 58.7325C241.664 58.596 238.496 58.5278 236.017 58.5132C233.526 58.4985 231.753 58.5383 231.153 58.6133C230.626 58.6792 230.208 58.6432 229.892 58.5043C229.561 58.3588 229.366 58.1098 229.284 57.8178C229.206 57.5408 229.236 57.2457 229.301 56.9878C229.323 56.9043 229.349 56.8219 229.378 56.742H229.376H229.36H229.344H229.327H229.31H229.294H229.277H229.259H229.242H229.225H229.207H229.189H229.171H229.153H229.135H229.116H229.098H229.079H229.06H229.041H229.022H229.002H228.982H228.963H228.943H228.923H228.902H228.882H228.861H228.841H228.82H228.799H228.777H228.756H228.734H228.713H228.691H228.669H228.646H228.624H228.601H228.579H228.556H228.533H228.509H228.486H228.462H228.439H228.415H228.391H228.366H228.342H228.317H228.293H228.268H228.243H228.217H228.192H228.166H228.141H228.115H228.088H228.062H228.036H228.009H227.982H227.955H227.928H227.901H227.873H227.845H227.818H227.79H227.761H227.733H227.704H227.676H227.647H227.618H227.589H227.559H227.53H227.5H227.47H227.44H227.409H227.379H227.348H227.317H227.286H227.255H227.224H227.192H227.161H227.129H227.097H227.064H227.032H226.999H226.967H226.934H226.9H226.867H226.834H226.8H226.766H226.732H226.698H226.663H226.629H226.594H226.559H226.524H226.489H226.453H226.418H226.382H226.346H226.309H226.273H226.236H226.2H226.163H226.126H226.088H226.051H226.013H225.975H225.937H225.899H225.861H225.822H225.783H225.744H225.705H225.666H225.626H225.586H225.546H225.506H225.466H225.426H225.385H225.344H225.303H225.262H225.22H225.179H225.137H225.095H225.053H225.01H224.968H224.925H224.882H224.839H224.796H224.752H224.709H224.665H224.621H224.577H224.532H224.487H224.443H224.398H224.352H224.307H224.261H224.216H224.17H224.123H224.077H224.03H223.984H223.937H223.89H223.842H223.795H223.747H223.699H223.651H223.603H223.554H223.505H223.457H223.407H223.358H223.309H223.259H223.209H223.159H223.109H223.058H223.008H222.957H222.906H222.854H222.803H222.751H222.699H222.647H222.595H222.543H222.49H222.437H222.384H222.331H222.277H222.224H222.17H222.116H222.061H222.007H221.952H221.897H221.842H221.787H221.732H221.676H221.62H221.564H221.508H221.451H221.395H221.338H221.281H221.223H221.166H221.108H221.05H220.992H220.934H220.875H220.816H220.757H220.698H220.639H220.579H220.52H220.46H220.4H220.339H220.279H220.218H220.157H220.095H220.034H219.972H219.911H219.849H219.786H219.724H219.661H219.598H219.535H219.472H219.408H219.345H219.281H219.216H219.152H219.088H219.023H218.958H218.893H218.827H218.761H218.696H218.63H218.563H218.497H218.43H218.363H218.296H218.229H218.161H218.093H218.025H217.957H217.889H217.82H217.751H217.682H217.613H217.544H217.474H217.404H217.334H217.264H217.193H217.122H217.051H216.98H216.909H216.837H216.765H216.693H216.621H216.548H216.475H216.402H216.329H216.256H216.182H216.108H216.034H215.96H215.886H215.811H215.736H215.661H215.585H215.51H215.434H215.358H215.282H215.205H215.128H215.051H214.974H214.897H214.819H214.742H214.663H214.585H214.507H214.428H214.349H214.27H214.19H214.111H214.031H213.951H213.871H213.79H213.709H213.628H213.547H213.466H213.384H213.302H213.22H213.138H213.055H212.973H212.889H212.806H212.723H212.639H212.555H212.471H212.387H212.302H212.217H212.132H212.047H211.961H211.876H211.79H211.703H211.617H211.53H211.443H211.356H211.269H211.181H211.093H211.005H210.917H210.828H210.74H210.651H210.561H210.472H210.382H210.292H210.202H210.112H210.021H209.93H209.839H209.748H209.656H209.564H209.472H209.38H209.288H209.195H209.102H209.009H208.915H208.821H208.727H208.633H208.539H208.444H208.349H208.254H208.159H208.063H207.967H207.871H207.775H207.678H207.582H207.485H207.387H207.29H207.192H207.094H206.996H206.897H206.799H206.7H206.6H206.501H206.401H206.301H206.201H206.101H206H205.899H205.798H205.697H205.595H205.493H205.391H205.289H205.186H205.083H204.98H204.877H204.773H204.669H204.565H204.461H204.356H204.252H204.147H204.041H203.936H203.83H203.724H203.618H203.511H203.404H203.297H203.19H203.082H202.975H202.867H202.758H202.65H202.541H202.432H202.323H202.213H202.103H201.993H201.883H201.773H201.662H201.551H201.44H201.328H201.216H201.104H200.992H200.879H200.767H200.654H200.54H200.427H200.313H200.199C188.022 56.742 181.887 57.3673 178.726 58.1384C177.146 58.5237 176.339 58.9386 175.893 59.3056C175.521 59.6125 175.388 59.8913 175.253 60.1731L175.253 60.1743C175.238 60.2045 175.224 60.2348 175.209 60.2651ZM230.125 56.6051C230.037 56.7637 229.955 56.9532 229.907 57.1423C229.855 57.343 229.848 57.5176 229.885 57.6492C229.918 57.7657 229.988 57.8642 230.144 57.9326C230.314 58.0078 230.604 58.0525 231.076 57.9935C231.725 57.9124 233.544 57.8741 236.02 57.8887C238.508 57.9033 241.683 57.9717 245.063 58.1085C251.815 58.3817 259.411 58.9286 263.967 59.8713C266.155 60.3238 268.55 60.7407 271.098 61.1842L271.099 61.1843L271.1 61.1845C279.055 62.5688 288.499 64.2124 297.749 68.0075L297.771 68.0164L297.791 68.0286C298.168 68.2548 298.491 68.3826 298.724 68.4052C298.837 68.4161 298.909 68.4004 298.952 68.3787C298.99 68.36 299.029 68.3267 299.061 68.2514C299.136 68.0771 299.159 67.7145 298.996 67.0536C298.837 66.4081 298.514 65.5308 297.972 64.3688C297.828 64.0598 297.685 63.7453 297.545 63.4253C295.543 58.8648 294.043 53.1827 296.719 46.9383C298.133 43.6383 299.314 41.7473 300.221 40.4065C300.373 40.1827 300.515 39.9762 300.648 39.7826L300.649 39.7813C301.323 38.8028 301.769 38.1555 302.014 37.2948C302.17 36.7517 302.277 36.277 302.285 35.8758C302.294 35.4804 302.207 35.1912 302.008 34.9783C301.804 34.7595 301.437 34.5722 300.78 34.4844C300.125 34.3967 299.219 34.413 297.982 34.5676C296.525 34.7498 294.38 34.7741 292.003 34.7261C289.585 34.6773 286.907 34.553 284.436 34.4383L284.435 34.4383L284.435 34.4383C283.88 34.4125 283.335 34.3872 282.806 34.3633C279.908 34.2328 277.512 34.1477 276.426 34.2562C275.987 34.3002 275.224 34.2131 274.255 34.0433C273.272 33.871 272.04 33.6059 270.639 33.2734C267.836 32.6083 264.348 31.67 260.812 30.6544C253.753 28.6263 246.467 26.2776 244.098 25.1722L244.087 25.1668L244.076 25.1604C243.022 24.5584 241.34 24.0201 239.783 23.6308C239.009 23.4373 238.274 23.2827 237.677 23.1767C237.071 23.0692 236.627 23.0156 236.423 23.0156C236.41 23.0156 236.352 23.0243 236.248 23.1116C236.148 23.1958 236.03 23.3315 235.904 23.524C235.651 23.908 235.388 24.4754 235.159 25.1808C234.702 26.5895 234.396 28.5004 234.549 30.4864C234.625 31.4804 234.856 32.7511 235.134 34.1834L235.194 34.488L235.293 34.9942L235.293 34.9948L235.293 34.995C235.53 36.1974 235.783 37.4834 235.99 38.7753C236.245 40.3632 236.433 41.972 236.438 43.464C236.443 44.9532 236.266 46.348 235.774 47.4965C234.265 51.0175 231.389 55.0218 230.125 56.6051ZM154.818 1.44866C137.201 1.3852 87.3501 1.20562 78.4191 1.4683C74.2043 1.59226 71.0127 2.34088 68.7403 3.21961C66.4595 4.10158 65.1222 5.10748 64.5956 5.7298L64.5846 5.74285L64.5722 5.75463C59.7775 10.3034 57.0596 18.0244 56.0952 26.0509C55.1326 34.0617 55.9258 42.3033 58.0822 47.8639C58.3846 48.3958 58.6901 48.8982 58.998 49.3727C59.0893 49.4655 59.181 49.5592 59.2731 49.654L59.2184 49.7072C62.1471 54.0813 65.2609 55.9792 67.8061 56.7625C69.5156 57.2886 70.9809 57.3173 71.9931 57.24C72.4981 57.1684 72.9624 57.1083 73.3746 57.0568C75.8901 56.7423 99.6373 55.493 105.266 55.493C108.081 55.493 121.75 55.8054 135.252 56.1176L137.776 56.176C150.384 56.4677 162.242 56.7421 164.287 56.7421C167.625 56.7421 170.661 57.6741 171.991 58.2304C172.206 57.9043 172.399 57.4451 172.566 56.8845C172.765 56.2144 172.918 55.4286 173.034 54.6137C173.266 52.984 173.343 51.2659 173.343 50.1842V50.1812C173.366 47.8556 173.39 44.9496 173.412 41.7505C173.491 30.0909 173.539 14.5531 173.345 9.02464C171.812 4.91798 169.54 3.04959 167.261 2.19C165.233 1.42547 163.178 1.44667 161.528 1.46369C161.294 1.4661 161.068 1.46843 160.852 1.46843C160.307 1.46843 158.133 1.4606 154.818 1.44866ZM55.4751 25.9764C54.5197 33.9274 55.2716 42.1373 57.3935 47.8104C52.9844 43.7047 49.5788 42.1119 47.2292 41.7559C45.8931 41.5534 44.8778 41.7488 44.2224 42.1376C43.5821 42.5174 43.2191 43.1462 43.4574 43.742C43.6187 44.1451 43.8385 44.4384 44.0814 44.7625L44.1412 44.8424C44.4091 45.2011 44.7297 45.6442 45.109 46.3839C45.8718 47.8713 46.8798 50.5737 48.1267 56.185C48.7404 58.9465 48.5227 61.1192 47.7665 62.7904C47.0109 64.4601 45.7035 65.6607 44.0788 66.4542C40.8149 68.0482 36.2973 67.982 32.604 66.7509C29.556 65.7348 27.6062 66.0743 26.4296 67.0312C25.7119 67.6149 25.3188 68.3991 25.136 69.1603C24.7498 68.1531 24.1795 66.9323 23.4562 65.6077C22.2914 63.4747 20.7172 61.0495 18.8412 58.7762C15.2137 54.3806 10.3865 50.469 5.1587 50.4852C5.17617 50.4576 5.19556 50.4291 5.21701 50.3995C5.34689 50.2207 5.54048 50.0229 5.80057 49.8085C6.32102 49.3794 7.07385 48.9108 8.01682 48.4153C9.90029 47.4256 12.4927 46.3537 15.3746 45.2935C21.1352 43.1742 28.0118 41.1158 32.5868 39.868L32.6166 39.8599L32.6443 39.8461C32.6921 39.8222 32.8309 39.778 33.0962 39.6972L33.1292 39.6871L33.1295 39.687C33.3731 39.6128 33.6876 39.517 34.0505 39.3941C34.81 39.1368 35.7859 38.7591 36.797 38.2006C38.8177 37.0846 41.003 35.2324 41.8616 32.156C47.539 11.812 58.3079 6.27684 63.5741 5.86449C58.9825 10.6115 56.4089 18.2043 55.4751 25.9764ZM173.058 62.9458C173.101 63.3095 173.143 63.694 173.184 64.0973C173.49 67.1362 173.714 71.2159 173.773 75.4442C173.831 79.673 173.724 84.0421 173.369 87.6615C173.192 89.4716 172.953 91.0876 172.645 92.4018C172.334 93.7258 171.96 94.707 171.532 95.2775C171.124 95.8215 170.257 96.3239 168.945 96.7637C167.648 97.1988 165.97 97.5554 164.007 97.8444C160.083 98.4223 155.063 98.7245 149.758 98.861C140.445 99.1007 130.29 98.8293 123.72 98.6538H123.72C122.807 98.6294 121.963 98.6068 121.2 98.5878C117.748 98.5014 110.957 98.5343 102.67 98.5744L102.665 98.5744L102.662 98.5744H102.661H102.659H102.657C95.945 98.6069 88.2525 98.6441 80.5574 98.6267C71.9513 98.6072 63.338 98.5193 56.0774 98.2804C48.8793 98.0435 43.0345 97.6586 39.8406 97.0501C36.7124 93.8819 35.497 89.8304 35.2598 86.0224C35.0283 82.3064 35.7306 78.8473 36.4722 76.7271C38.6976 76.7084 44.3287 76.4257 51.1362 76.084L51.1405 76.0838L51.1408 76.0838L51.1411 76.0837L51.1434 76.0836L51.1572 76.0829L51.1652 76.0826C53.7839 75.9511 56.576 75.8109 59.4149 75.6737C69.9202 75.166 81.0702 74.6985 86.5202 74.8542C91.9868 75.0104 112.286 75.4789 131.493 75.7912C141.096 75.9473 150.427 76.0644 157.494 76.084C161.028 76.0937 163.997 76.0791 166.153 76.0327C167.23 76.0095 168.107 75.9782 168.751 75.9379C169.073 75.9177 169.34 75.8951 169.546 75.8694C169.739 75.8455 169.916 75.8152 170.031 75.766C170.663 75.4952 171.118 74.9832 171.452 74.3631C171.784 73.7445 172.007 72.9989 172.166 72.2237C172.38 71.1807 172.487 70.0304 172.582 69.0205L172.582 69.0163C172.626 68.5413 172.668 68.0975 172.716 67.7106C172.823 66.8579 172.858 66.0746 172.893 65.2928V65.2926L172.901 65.1111L172.907 64.971L172.916 64.7809C172.945 64.1943 172.983 63.5946 173.058 62.9458ZM171.912 58.8764C170.757 58.3632 167.679 57.3666 164.287 57.3666C162.235 57.3666 150.383 57.0924 137.792 56.8011L137.79 56.8011L137.784 56.8009L135.238 56.742C121.728 56.4296 108.072 56.1175 105.266 56.1175C99.653 56.1175 75.9368 57.3662 73.4527 57.6764C73.4289 57.6796 73.4 57.684 73.366 57.6896L73.2937 57.7017L73.2608 57.7073L73.2606 57.7074C73.0115 57.7498 72.5991 57.8201 72.0565 57.8619C69.5226 58.2222 66.0009 58.8677 62.9159 60.1532C61.0571 60.9277 54.4326 64.1224 48.2719 67.5927C45.1918 69.3277 42.2376 71.126 40.0568 72.7204C38.9653 73.5184 38.0777 74.258 37.4661 74.9069C37.1603 75.2314 36.9306 75.5257 36.7788 75.7865C36.7118 75.9018 36.6624 76.0064 36.6279 76.1008C38.9365 76.071 44.4364 75.7949 51.0754 75.4617L51.0757 75.4617L51.0806 75.4614L51.0808 75.4614C53.7125 75.3293 56.5231 75.1882 59.3847 75.0499C69.8802 74.5427 81.0583 74.0734 86.5381 74.2299C92.0014 74.386 112.298 74.8544 131.503 75.1667C141.105 75.3228 150.433 75.4399 157.496 75.4594C161.028 75.4692 163.991 75.4545 166.139 75.4082C167.214 75.3851 168.081 75.3541 168.712 75.3146C169.028 75.2948 169.281 75.273 169.469 75.2496C169.563 75.2379 169.638 75.2262 169.695 75.2149L169.715 75.2107L169.732 75.2069L169.745 75.2037L169.761 75.1995C169.769 75.1973 169.775 75.1954 169.779 75.1939L169.785 75.192L169.785 75.1919C170.246 74.9942 170.611 74.6084 170.902 74.0672C171.194 73.5245 171.401 72.8453 171.554 72.0982C171.761 71.0871 171.862 70.0052 171.954 69.0139C172 68.5252 172.043 68.0585 172.096 67.6332C172.2 66.8074 172.234 66.0531 172.268 65.2727L172.269 65.2639L172.269 65.2567L172.275 65.1258L172.282 64.9658C172.286 64.8944 172.289 64.8226 172.293 64.7504C172.34 63.7807 172.412 62.7551 172.64 61.5295C172.82 60.5607 172.573 59.565 171.912 58.8764ZM26.1434 124.314C25.1706 127.597 23.2996 134.457 22.821 138.286C22.3646 141.937 22.0474 144.996 21.917 146.367H24.2219C26.8814 142.534 32.2785 132.773 34.8246 123.855C34.4728 123.909 34.0817 123.958 33.6597 124.003C31.9387 124.185 29.664 124.292 27.3547 124.312C26.9513 124.315 26.5466 124.316 26.1434 124.314ZM35.0468 123.185L35.0131 123.176L35.0089 123.192C34.607 123.261 34.1305 123.325 33.5941 123.382C31.8995 123.561 29.6461 123.668 27.3494 123.687C25.0526 123.707 22.7216 123.639 20.8714 123.469C19.9455 123.384 19.1476 123.275 18.5375 123.14C18.2323 123.073 17.9811 123.001 17.7874 122.926C17.6261 122.863 17.522 122.804 17.4606 122.757C4.37591 93.4583 1.19931 76.4256 1.31559 66.2703C1.37372 61.1942 2.25462 57.8344 3.13481 55.5161C3.51912 54.5039 3.90371 53.6887 4.22633 53.0048C4.27419 52.9034 4.32068 52.8048 4.36561 52.7089C4.64773 52.1069 4.88435 51.5802 4.98167 51.112C9.97557 51.0057 14.7079 54.749 18.3595 59.1738C20.2074 61.413 21.7599 63.8047 22.908 65.907C24.0564 68.01 24.7876 69.8007 25.0147 70.8506C26.4282 80.421 29.1824 85.4665 31.4612 89.2806C31.616 89.5397 31.7683 89.7927 31.9175 90.0406L31.9184 90.0421C33.9623 93.4376 35.4363 95.8863 35.0045 100.118C34.2211 107.795 34.6122 113.208 35.1625 116.864C35.4307 118.645 35.7363 120.007 35.9596 121.001L35.9766 121.077C36.0894 121.58 36.1774 121.976 36.2281 122.286C36.2744 122.569 36.2817 122.739 36.2681 122.835C36.2511 122.847 36.2221 122.866 36.1764 122.888C36.0597 122.944 35.8796 123.005 35.6325 123.065C35.4617 123.107 35.2656 123.147 35.0468 123.185Z" fill="black" fill-opacity="0.35"/>
</svg>
