<svg width="176" height="150" viewBox="0 0 176 150" fill="none" xmlns="http://www.w3.org/2000/svg">
<g id="Frame 1948756536">
<path id="Union" fill-rule="evenodd" clip-rule="evenodd" d="M1.48822 11.0672C9.81864 17.9049 22.8687 30.104 35.0934 44.6021C47.359 59.1487 58.825 76.0462 63.8347 92.1886C63.8779 92.3276 63.8468 92.472 63.764 92.5789H73.4878C73.6979 91.7756 73.8423 90.5383 73.9344 89.2396C74.037 87.7913 74.0715 86.3186 74.0717 85.4031C73.8369 80.3031 70.9875 70.4658 66.2087 59.2557C61.5762 48.3889 55.1544 36.2876 47.6179 26.0543C40.0731 15.8097 31.4499 7.49069 22.4308 4.10854C16.916 2.04051 12.7227 1.11847 9.57158 0.977007C6.42042 0.835541 4.34783 1.47552 3.02694 2.48954C1.71259 3.49853 1.08399 4.92298 0.90983 6.48015C0.739414 8.00387 1.008 9.63678 1.48822 11.0672ZM63.0149 92.4431C63.0306 92.4937 63.0548 92.5394 63.0855 92.5789H50.2718C48.5055 92.5789 47.0736 94.0108 47.0736 95.7772V109.352L34.771 46.5443C34.7271 46.3201 34.5153 46.1696 34.2892 46.2019L25.4565 47.4637C23.2883 47.7734 21.5679 49.2086 20.7874 51.0849C19.2214 51.3039 17.6608 52.1737 16.5018 53.9175C15.2568 55.7907 14.4924 58.6437 14.6239 62.7356C14.8855 70.8727 18.6951 84.0655 29.6569 104.677L30.8523 111.185C31.4469 114.423 34.5505 116.567 37.7888 115.978L47.0734 114.29V135.236C47.0734 135.351 47.1193 135.461 47.2009 135.541C47.2824 135.622 47.3928 135.666 47.5075 135.665L49.1062 135.647V136.353C47.8024 136.578 46.8106 137.714 46.8106 139.082C46.8106 140.062 47.3195 140.922 48.0874 141.415H8.47721L9.16176 18.8816C16.6722 25.7425 25.7632 34.8684 34.4371 45.1555C46.6775 59.6722 58.0561 76.4647 63.0149 92.4431ZM8.32496 18.1206C8.31345 18.159 8.30715 18.1996 8.30692 18.2417L7.61749 141.649C7.58751 141.707 7.5706 141.774 7.5706 141.844C7.5706 141.913 7.5867 141.977 7.61533 142.035L7.61466 142.156L7.61465 142.159V149.081C7.61465 149.318 7.80681 149.51 8.04385 149.51H169.34C169.577 149.51 169.769 149.318 169.769 149.081V142.273H169.988C173.284 142.273 175.956 139.601 175.956 136.306V114.154C175.956 111.782 174.155 109.832 171.846 109.595V95.7772C171.846 95.0218 171.585 94.3277 171.147 93.7805C171.15 93.765 171.152 93.7493 171.153 93.7333C171.188 93.2821 171.24 92.7167 171.303 92.0454L171.303 92.0451C171.655 88.2784 172.317 81.1783 171.846 72.2178C171.554 66.6807 166.879 63.2999 161.405 61.3145C155.903 59.3192 149.412 58.6582 145.111 58.6582H66.8869C62.2439 47.8138 55.8338 35.7626 48.3091 25.5453C40.7323 15.2573 31.9865 6.77516 22.7322 3.3048C17.1708 1.21928 12.884 0.266447 9.61007 0.11947C6.3362 -0.0275059 4.0389 0.6305 2.50423 1.80864C0.963004 2.9918 0.250353 4.65368 0.0567478 6.38474C-0.136058 8.10865 0.181922 9.91938 0.715877 11.4619C0.74183 11.5369 0.788059 11.6032 0.849428 11.6535C3.04169 13.4499 5.56811 15.6247 8.32496 18.1206ZM8.47305 148.652H168.911V142.273H158.22H8.47305V148.652ZM49.9646 136.339V135.637L157.791 134.412V141.415H51.0719C51.8398 140.922 52.3487 140.062 52.3487 139.082C52.3487 137.683 51.3117 136.527 49.9646 136.339ZM158.649 141.415V134.402L168.911 134.286V141.415H158.649ZM169.988 141.415H169.769V133.851C169.769 133.737 169.724 133.627 169.642 133.546C169.56 133.466 169.45 133.421 169.335 133.422L59.9092 134.666C60.3721 134.171 60.6556 133.506 60.6556 132.775C60.6556 131.529 59.8325 130.475 58.7003 130.127H171.417C171.654 130.127 171.846 129.935 171.846 129.698V113.095L171.846 113.084V110.459C173.68 110.692 175.097 112.257 175.097 114.154V136.306C175.097 139.127 172.81 141.415 169.988 141.415ZM170.944 110C170.944 109.932 170.96 109.867 170.988 109.81V95.7772C170.988 94.4849 169.94 93.4373 168.648 93.4373H73.818C73.8119 93.4375 73.8057 93.4375 73.7995 93.4373H50.2718C48.9796 93.4373 47.932 94.4849 47.932 95.7772V113.344L170.988 112.657V110.19C170.96 110.133 170.944 110.068 170.944 110ZM55.1175 132.775C55.1175 133.528 55.4187 134.212 55.9074 134.711L47.9318 134.802V114.203L55.3805 114.161V129.698C55.3805 129.935 55.5727 130.127 55.8097 130.127H57.0727C55.9406 130.475 55.1175 131.529 55.1175 132.775ZM170.988 113.515L56.2389 114.156V129.269H170.988V113.515ZM170.449 91.959C170.411 92.3671 170.376 92.737 170.347 93.0671C169.855 92.7578 169.272 92.5789 168.648 92.5789H74.3713C74.5758 91.6912 74.7067 90.485 74.7906 89.3003C74.8953 87.8232 74.9301 86.3245 74.9301 85.3933L74.93 85.3838L74.9297 85.3738C74.6948 80.2057 71.8878 70.5013 67.2518 59.5166H145.111C149.349 59.5166 155.734 60.1709 161.112 62.1215C166.518 64.0819 170.726 67.2777 170.989 72.2629C171.457 81.1539 170.801 88.1861 170.449 91.959ZM30.5823 104.964C30.64 104.845 30.6419 104.7 30.5748 104.575L30.4772 104.391L21.2756 54.2939C21.1193 53.443 21.1834 52.6042 21.4266 51.8351C21.5558 51.753 21.6368 51.6043 21.6247 51.4409C21.6224 51.4091 21.6166 51.3784 21.6079 51.3491C22.2883 49.7745 23.7466 48.5751 25.5779 48.3135L34.007 47.1093L46.9979 113.431L37.6353 115.134C34.8627 115.638 32.2056 113.802 31.6965 111.03L30.5823 104.964ZM20.4881 52.012C20.3063 52.7876 20.2778 53.6133 20.4313 54.449L29.1359 101.841C19.1781 82.6608 15.7268 70.3279 15.4819 62.708C15.3538 58.7235 16.1037 56.0673 17.2167 54.3926C18.1318 53.0159 19.3036 52.2835 20.4881 52.012ZM57.8865 134.685C58.9417 134.685 59.7971 133.83 59.7971 132.775C59.7971 131.719 58.9417 130.864 57.8865 130.864C56.8313 130.864 55.9759 131.719 55.9759 132.775C55.9759 133.83 56.8313 134.685 57.8865 134.685ZM51.4903 139.082C51.4903 140.137 50.6348 140.992 49.5796 140.992C48.5244 140.992 47.669 140.137 47.669 139.082C47.669 138.027 48.5244 137.171 49.5796 137.171C50.6348 137.171 51.4903 138.027 51.4903 139.082Z" fill="black" fill-opacity="0.35"/>
</g>
</svg>
