<svg width="48" height="48" viewBox="0 0 48 48" fill="none" xmlns="http://www.w3.org/2000/svg">
<g id="Icons / calc circle">
<circle id="Ellipse 2" cx="24" cy="24" r="24" fill="#F4F2F0"/>
<g id="Icons / geomark">
<path id="Vector" d="M23.9994 29.3999L20.1936 24.0249C19.5706 23.2893 19.1694 22.3919 19.0367 21.4372C18.904 20.4824 19.0453 19.5096 19.4441 18.6321C19.8429 17.7545 20.4828 17.0083 21.2893 16.4803C22.0957 15.9523 23.0356 15.6644 23.9994 15.6499C25.3356 15.6631 26.6121 16.2053 27.5492 17.1578C28.4864 18.1103 29.0079 19.3954 28.9994 20.7316C28.9999 21.897 28.603 23.0278 27.8744 23.9374L23.9994 29.3999ZM23.9994 16.8999C22.9942 16.9113 22.0347 17.3213 21.3316 18.0397C20.6284 18.7582 20.2392 19.7264 20.2494 20.7316C20.2537 21.649 20.5839 22.5351 21.1811 23.2316L23.9994 27.2249L26.8936 23.1499C27.4434 22.4634 27.745 21.6111 27.7494 20.7316C27.7595 19.7264 27.3702 18.7584 26.6671 18.04C25.964 17.3216 25.0046 16.9116 23.9994 16.8999Z" fill="black" fill-opacity="0.85"/>
<path id="Vector_2" d="M24 21.2749C24.3315 21.2749 24.6495 21.1432 24.8839 20.9088C25.1183 20.6744 25.25 20.3564 25.25 20.0249C25.25 19.6934 25.1183 19.3754 24.8839 19.141C24.6495 18.9066 24.3315 18.7749 24 18.7749C23.6685 18.7749 23.3505 18.9066 23.1161 19.141C22.8817 19.3754 22.75 19.6934 22.75 20.0249C22.75 20.3564 22.8817 20.6744 23.1161 20.9088C23.3505 21.1432 23.6685 21.2749 24 21.2749Z" fill="black" fill-opacity="0.85"/>
<path id="Vector_3" d="M31.5 21.8999H30.25V23.1499H31.5V31.8999H16.5V23.1499H17.75V21.8999H16.5C16.1685 21.8999 15.8505 22.0316 15.6161 22.266C15.3817 22.5004 15.25 22.8184 15.25 23.1499V31.8999C15.25 32.2314 15.3817 32.5494 15.6161 32.7838C15.8505 33.0182 16.1685 33.1499 16.5 33.1499H31.5C31.8315 33.1499 32.1495 33.0182 32.3839 32.7838C32.6183 32.5494 32.75 32.2314 32.75 31.8999V23.1499C32.75 22.8184 32.6183 22.5004 32.3839 22.266C32.1495 22.0316 31.8315 21.8999 31.5 21.8999Z" fill="black" fill-opacity="0.85"/>
</g>
</g>
</svg>
