<svg width="155" height="151" viewBox="0 0 155 151" fill="none" xmlns="http://www.w3.org/2000/svg">
<path id="Union" fill-rule="evenodd" clip-rule="evenodd" d="M77.9035 0.911436C77.9622 0.878037 78.0343 0.878345 78.0927 0.912246L152.103 43.8381C152.229 43.9111 152.229 44.0927 152.104 44.1664L78.0935 87.5857C78.0347 87.6202 77.9618 87.6205 77.9026 87.5865L33.3029 61.9344L33.3011 61.927L33.2934 61.9289L2.41229 44.1672C2.28491 44.0939 2.28536 43.91 2.41311 43.8373L77.9035 0.911436ZM29.6866 60.5696L32.7631 62.3391L33.7235 66.3008L27.5499 69.8286L29.6866 60.5696ZM27.3251 70.6711L33.8755 66.928L36.5087 77.7897C36.6494 78.3702 37.0095 78.8736 37.5135 79.1943L40.1688 80.8841C41.3649 81.6452 42.9413 81.041 43.342 79.7085L49.3373 76.4417L51.5224 86.7429C51.6511 87.3497 52.0185 87.8793 52.5419 88.2124L54.947 89.7429C56.1791 90.527 57.7822 89.9788 58.3185 88.6872L64.0638 85.8145L66.0154 94.7358C66.1494 95.3487 66.527 95.8807 67.0613 96.2095L70.5785 98.3739C71.6427 99.0288 72.9763 98.7061 73.6587 97.7661L148.972 53.6682C149.48 53.3709 149.855 52.8911 150.021 52.3266L152.232 44.8101L152.417 44.7011C152.952 44.3872 152.951 43.613 152.414 43.3018L78.4038 0.375927C78.1546 0.231403 77.8474 0.230087 77.597 0.372476L2.10664 43.2984C1.56203 43.6081 1.5601 44.3923 2.10318 44.7046L2.23729 44.7818L5.03525 59.7043C5.15308 60.3327 5.5261 60.8842 6.06551 61.2274L9.22574 63.2385C10.153 63.8286 11.3731 63.367 11.6955 62.3412L17.9842 58.3763L20.5087 68.7897C20.6494 69.3702 21.0095 69.8736 21.5135 70.1943L23.947 71.7429C25.1842 72.5302 26.7955 71.9743 27.3251 70.6711ZM74.0771 96.8027L148.659 53.1332C149.03 52.9157 149.305 52.5646 149.426 52.1517L151.451 45.2683L78.4072 88.1204C78.1563 88.2676 77.8457 88.269 77.5935 88.1239L76.658 87.5859L74.0771 96.8027ZM76.1035 87.2669L63.4205 79.9721L66.621 94.6034C66.7191 95.0517 66.9954 95.441 67.3863 95.6815L70.9034 97.8459C71.8599 98.4345 73.1137 97.9437 73.4165 96.8623L76.1035 87.2669ZM62.7099 79.5634L60.7212 78.4196L58.5369 87.8848L63.8611 85.2227L63.9913 85.4831L62.697 79.5663L62.7099 79.5634ZM60.1595 78.0965L48.9551 71.6521L52.1289 86.6142C52.223 87.0582 52.4918 87.4456 52.8748 87.6893L55.2798 89.2198C56.2639 89.8461 57.5716 89.3106 57.8339 88.174L60.1595 78.0965ZM48.2332 71.237L45.745 69.8058L43.5429 78.893L49.203 75.8087L48.2332 71.237ZM42.8078 79.2935L45.1851 69.4838L33.5044 62.7655L37.1112 77.6436C37.2142 78.0683 37.4776 78.4366 37.8463 78.6712L40.5017 80.361C41.3775 80.9184 42.5413 80.4419 42.7747 79.4303L42.7755 79.427L42.8061 79.2945L42.8078 79.2935ZM16.706 53.1037L17.8301 57.7406L11.8996 61.4796L14.1693 51.6446L16.706 53.1037ZM21.1112 68.6436L17.4473 53.53L29.1248 60.2465L26.8339 70.174C26.5716 71.3107 25.2639 71.8461 24.2798 71.2198L21.8463 69.6712C21.4776 69.4366 21.2142 69.0683 21.1112 68.6436ZM13.6075 51.3215L2.94434 45.1884L5.64463 59.59C5.73084 60.0498 6.00374 60.4532 6.39837 60.7044L9.5586 62.7154C10.1627 63.0998 10.9653 62.7712 11.1263 62.0735L11.155 61.9491L13.6075 51.3215ZM153.69 73.2177C153.69 72.6888 153.119 72.3565 152.659 72.6177L145.31 76.7902V87.5001C145.31 87.6713 145.171 87.8101 145 87.8101C144.829 87.8101 144.69 87.6713 144.69 87.5001V77.1422L134.31 83.0354V94.0001C134.31 94.1713 134.171 94.3101 134 94.3101C133.829 94.3101 133.69 94.1713 133.69 94.0001V83.3874L122.81 89.5644V101C122.81 101.171 122.671 101.31 122.5 101.31C122.329 101.31 122.19 101.171 122.19 101V89.9164L111.31 96.0934V108C111.31 108.171 111.171 108.31 111 108.31C110.829 108.31 110.69 108.171 110.69 108V96.4454L99.3099 102.906V114.5C99.3099 114.671 99.1712 114.81 98.9999 114.81C98.8287 114.81 98.6899 114.671 98.6899 114.5V103.258L88.3099 109.152V121.5C88.3099 121.671 88.1712 121.81 87.9999 121.81C87.8287 121.81 87.6899 121.671 87.6899 121.5V109.504L76.8099 115.681V149.965L153.344 106.02C153.558 105.896 153.69 105.668 153.69 105.421V73.2177ZM98.6899 102.545L76.502 115.142L3.20387 72.4257L10.6642 67.7629C10.8094 67.6722 10.8536 67.4809 10.7628 67.3358C10.6721 67.1906 10.4808 67.1464 10.3356 67.2372L2.59675 72.074C1.7346 71.6297 0.689941 72.2535 0.689941 73.2403V105.925C0.689941 106.392 0.937617 106.823 1.34034 107.057L76.3438 150.768L76.4988 150.858L76.6543 150.769L153.652 106.557C154.059 106.324 154.31 105.89 154.31 105.421V73.2177C154.31 72.2238 153.249 71.5957 152.38 72.0636L143.662 66.7355C143.516 66.6463 143.325 66.6923 143.235 66.8384C143.146 66.9845 143.192 67.1753 143.338 67.2646L151.763 72.4133L145.089 76.2029C145.061 76.1946 145.031 76.1901 145 76.1901C144.855 76.1901 144.733 76.2895 144.699 76.4239L99.1947 102.259C99.1414 102.216 99.0737 102.19 98.9999 102.19C98.8287 102.19 98.6899 102.329 98.6899 102.5V102.545ZM76.1899 149.961V115.678L2.34737 72.6441C1.88737 72.376 1.30994 72.7079 1.30994 73.2403V105.925C1.30994 106.171 1.4404 106.398 1.65251 106.522L76.1899 149.961Z" fill="black" fill-opacity="0.35"/>
</svg>
