<svg width="356" height="155" viewBox="0 0 356 155" fill="none" xmlns="http://www.w3.org/2000/svg">
<g clip-path="url(#clip0_1642_35152)">
<path d="M58.2045 58.3227L53.833 39.9624C52.8393 35.7886 55.5695 31.6408 59.7962 30.9032L131.418 18.4054M58.2045 58.3227L61.9273 114.164L112.805 155.114M58.2045 58.3227L91.7091 78.6285M239.377 17.3727L237.981 7.60167C237.387 3.44187 233.47 0.597663 229.331 1.31999L186.018 8.87791M239.377 17.3727V37.2273M239.377 17.3727L266.677 24.8182L280.327 28.5409L293.977 32.2636M293.977 32.2636C295.218 29.3682 300.182 26.0591 302.664 28.5409C304.71 30.5875 303.491 37.6409 300.182 40.95L295.218 83.1409L289.014 85.6227M293.977 32.2636L291.495 58.9432M289.014 85.6227L289.937 75.6955M289.014 85.6227C285.705 83.6929 279.086 79.8331 279.086 79.8331M99.1545 83.1409C104.532 79.8318 116.031 76.1918 119.009 88.1045M99.1545 83.1409C93.1982 96.0464 101.636 100.1 106.6 100.514L112.805 155.114M99.1545 83.1409L91.7091 78.6285M119.009 88.1045C120.557 94.2956 121.725 106.564 122.548 119.127M119.009 88.1045L143.083 80.6591M112.805 155.114L123.897 150.184C123.943 150.163 123.972 150.119 123.971 150.068C123.771 142.515 123.305 130.696 122.548 119.127M91.7091 78.6285L141.345 64.7121M239.377 37.2273V50.8773M239.377 37.2273L193.464 50.0999M239.377 50.8773L193.464 65.0774M239.377 50.8773L274.276 65.0774M122.548 119.127L179.814 98.7275M291.495 58.9432L289.937 75.6955M291.495 58.9432L274.276 65.0774M123.973 138.982L193.464 112.483M289.937 75.6955L279.086 79.8331M193.464 112.483V93.865M193.464 112.483L246.823 92.136M193.464 93.865L179.814 98.7275M193.464 93.865L228.209 81.4876M246.823 74.8569V92.136M246.823 74.8569L228.209 81.4876M246.823 74.8569L274.276 65.0774M246.823 92.136L279.086 79.8331M143.083 80.6591L179.814 98.7275M143.083 80.6591L163.682 74.2882L193.464 65.0774M193.464 65.0774L228.209 81.4876M131.418 18.4054L141.345 64.7121M131.418 18.4054L158.718 13.6417L186.018 8.87791M141.345 64.7121L193.464 50.0999M186.018 8.87791L193.464 50.0999" stroke="black" stroke-opacity="0.35" stroke-width="0.62"/>
</g>
<defs>
<clipPath id="clip0_1642_35152">
<rect width="356" height="155" fill="white"/>
</clipPath>
</defs>
</svg>
