<svg width="48" height="48" viewBox="0 0 48 48" fill="none" xmlns="http://www.w3.org/2000/svg">
<g id="Icons / calc circle">
<circle id="Ellipse 2" cx="24" cy="24" r="24" fill="#F4F2F0"/>
<g id="Icons / mail">
<path id="Vector" d="M31.5 18.1499H16.5C16.1685 18.1499 15.8505 18.2816 15.6161 18.516C15.3817 18.7504 15.25 19.0684 15.25 19.3999V29.3999C15.25 29.7314 15.3817 30.0494 15.6161 30.2838C15.8505 30.5182 16.1685 30.6499 16.5 30.6499H31.5C31.8315 30.6499 32.1495 30.5182 32.3839 30.2838C32.6183 30.0494 32.75 29.7314 32.75 29.3999V19.3999C32.75 19.0684 32.6183 18.7504 32.3839 18.516C32.1495 18.2816 31.8315 18.1499 31.5 18.1499ZM30.125 19.3999L24 23.6374L17.875 19.3999H30.125ZM16.5 29.3999V19.9691L23.6433 24.9124C23.748 24.9852 23.8725 25.0242 24 25.0242C24.1275 25.0242 24.252 24.9852 24.3567 24.9124L31.5 19.9682V29.3999H16.5Z" fill="black" fill-opacity="0.85"/>
</g>
</g>
</svg>
