<svg width="48" height="48" viewBox="0 0 48 48" fill="none" xmlns="http://www.w3.org/2000/svg">
<g id="Icons / calc circle">
<circle id="Ellipse 2" cx="24" cy="24" r="24" fill="#F4F2F0"/>
<g id="Icons / phone">
<path id="Vector" d="M30.252 32.5249H30.1462C17.8645 31.8182 16.1212 21.4557 15.877 18.2932C15.8574 18.0474 15.8865 17.8001 15.9627 17.5655C16.0388 17.3309 16.1605 17.1136 16.3207 16.9262C16.481 16.7387 16.6766 16.5846 16.8965 16.4729C17.1164 16.3611 17.3561 16.2939 17.602 16.2749H21.0462C21.2965 16.2747 21.5412 16.3496 21.7485 16.49C21.9557 16.6304 22.1161 16.8298 22.2087 17.0624L23.1587 19.3999C23.2501 19.6271 23.2728 19.8762 23.224 20.1162C23.1751 20.3562 23.0567 20.5766 22.8837 20.7499L21.552 22.0932C21.7599 23.275 22.3258 24.3643 23.1731 25.2139C24.0205 26.0635 25.1083 26.6322 26.2895 26.8432L27.6462 25.4999C27.822 25.3287 28.0443 25.213 28.2854 25.1674C28.5266 25.1217 28.7758 25.1481 29.002 25.2432L31.3587 26.1874C31.5877 26.283 31.783 26.4446 31.9199 26.6517C32.0567 26.8587 32.1288 27.1018 32.127 27.3499V30.6499C32.127 31.1472 31.9295 31.6241 31.5778 31.9757C31.2262 32.3274 30.7493 32.5249 30.252 32.5249ZM17.752 17.5249C17.5863 17.5249 17.4273 17.5908 17.3101 17.708C17.1929 17.8252 17.127 17.9841 17.127 18.1499V18.1999C17.4145 21.8999 19.2587 30.6499 30.2145 31.2749C30.2966 31.2801 30.379 31.269 30.4568 31.2422C30.5346 31.2155 30.6064 31.1736 30.668 31.119C30.7296 31.0644 30.7797 30.9981 30.8156 30.9241C30.8515 30.85 30.8723 30.7696 30.877 30.6874V27.3499L28.5212 26.4066L26.727 28.1874L26.427 28.1499C20.9895 27.4682 20.252 22.0316 20.252 21.9749L20.2145 21.6749L21.9895 19.8807L21.052 17.5249H17.752Z" fill="black" fill-opacity="0.85"/>
</g>
</g>
</svg>
