<svg width="262" height="48" viewBox="0 0 262 48" fill="none" xmlns="http://www.w3.org/2000/svg">
<path d="M10.747 20.9713L5.55073 19.499C4.57805 19.2234 3.56062 19.7615 3.24093 20.7206L1.2848 26.589C0.944299 27.6105 1.52412 28.7098 2.55946 29.0056L22.7252 34.7672H23.6709M10.747 20.9713L22.4724 24.2935C22.6401 24.341 22.8136 24.3651 22.988 24.3651H98.1119C98.2877 24.3651 98.4625 24.3406 98.6315 24.2924L110.985 20.7627M10.747 20.9713C10.8425 16.7469 11.3373 7.84961 12.5628 3.23428C12.7651 2.47231 13.4758 1.98486 14.2642 1.98486H107.27C108.153 1.98486 108.919 2.59267 109.096 3.4574C109.968 7.6974 111.209 15.3123 110.985 20.7627M110.985 20.7627L116.425 19.2086C117.426 18.9225 118.47 19.4997 118.76 20.4998L120.545 26.6458C120.836 27.6493 120.259 28.6988 119.255 28.9897L99.3225 34.7672H98.0616M23.6709 34.7672L19.0082 45.5495C18.8282 45.9658 19.1334 46.4302 19.5869 46.4302H20.1045C20.3559 46.4302 20.5833 46.2808 20.6831 46.05L25.5621 34.7672M23.6709 34.7672H25.5621M25.5621 34.7672H36.5947M36.5947 34.7672V45.7998C36.5947 46.1479 36.8769 46.4302 37.2251 46.4302H37.8555C38.2037 46.4302 38.486 46.1479 38.486 45.7998V34.7672M36.5947 34.7672H38.486M38.486 34.7672H95.8551M95.8551 34.7672L100.734 46.05C100.834 46.2808 101.061 46.4302 101.313 46.4302H101.854C102.301 46.4302 102.606 45.9774 102.438 45.5629L98.0616 34.7672M95.8551 34.7672H98.0616M82.6161 34.7672V45.7998C82.6161 46.1479 82.8983 46.4302 83.2465 46.4302H83.8769C84.2251 46.4302 84.5074 46.1479 84.5074 45.7998V34.7672H82.6161Z" stroke="black" stroke-opacity="0.15" stroke-width="0.661605"/>
<path d="M279.267 45.6659H286.091C287.187 45.6659 288.076 44.7773 288.076 43.6811V32.82C288.076 29.8473 289.046 24.5508 296.675 21.5347C297.033 21.3935 297.372 21.1883 297.623 20.8978C302.256 15.535 295.049 8.5423 289.77 10.8467C288.136 11.5599 286.502 12.2423 285.026 13.3289M279.267 45.6659H159.329M279.267 45.6659V35.8625M159.329 45.6659H152.166C151.07 45.6659 150.182 44.7773 150.182 43.6811V32.82C150.182 31.8059 150.046 24.842 141.373 21.3263C135.613 17.9458 141.034 7.46623 150.182 10.8467C151.498 11.3334 152.638 12.1556 153.62 13.2131M159.329 45.6659V35.8625M159.329 35.8625V32.82C159.329 32.7095 159.329 32.5968 159.328 32.482M159.329 35.8625H198.631M279.267 35.8625V32.82C279.248 31.8744 279.247 30.9737 279.261 30.1156M279.267 35.8625H239.626M153.62 13.2131C157.556 9.83258 176.066 2.86874 218.62 2.05742C261.174 1.2461 280.622 9.23366 285.026 13.3289M153.62 13.2131C158.002 17.9277 159.274 27.3178 159.328 32.482M285.026 13.3289C282.316 15.3243 280.137 18.6826 279.466 26.0971C279.437 26.4149 279.411 26.7402 279.388 27.0732C279.322 28.0232 279.279 29.0358 279.261 30.1156M159.328 32.482L159.581 28.4557C159.633 27.6251 160.197 26.912 161.003 26.7046C167.982 24.909 182.893 22.8995 197.198 26.6747C198.05 26.8996 198.631 27.679 198.631 28.5606V35.8625M198.631 35.8625H199.308M199.308 35.8625V28.5879C199.308 27.6934 199.905 26.9067 200.775 26.6996C208.311 24.9065 223.995 22.9056 237.872 26.6672C238.716 26.896 239.287 27.6713 239.287 28.5458V35.8625M199.308 35.8625H239.287M239.287 35.8625H239.626M239.626 35.8625V28.4931C239.626 27.644 240.16 26.8862 240.977 26.6554C247.271 24.8785 261.309 22.9461 277.573 26.6395V26.6395C278.387 26.8245 278.986 27.5132 279.074 28.3439L279.261 30.1156" stroke="black" stroke-opacity="0.15" stroke-width="0.661605"/>
</svg>
